<?xml version="1.0" encoding="UTF-8" standalone="no"?>
<svg
   viewBox="0 0 512 512"
   version="1.1"
   id="svg2"
   sodipodi:docname="fa-quotes.svg"
   inkscape:version="1.4 (e7c3feb1, 2024-10-09)"
   xmlns:inkscape="http://www.inkscape.org/namespaces/inkscape"
   xmlns:sodipodi="http://sodipodi.sourceforge.net/DTD/sodipodi-0.dtd"
   xmlns="http://www.w3.org/2000/svg"
   xmlns:svg="http://www.w3.org/2000/svg">
  <defs
     id="defs2" />
  <sodipodi:namedview
     id="namedview2"
     pagecolor="#ffffff"
     bordercolor="#000000"
     borderopacity="0.25"
     inkscape:showpageshadow="2"
     inkscape:pageopacity="0.0"
     inkscape:pagecheckerboard="0"
     inkscape:deskcolor="#d1d1d1"
     inkscape:zoom="1.5585938"
     inkscape:cx="256"
     inkscape:cy="256.3208"
     inkscape:window-width="1920"
     inkscape:window-height="940"
     inkscape:window-x="1519"
     inkscape:window-y="33"
     inkscape:window-maximized="0"
     inkscape:current-layer="svg2" />
  <!-- Left bracket [ -->
  <path
     d="m 84.242602,38.255639 c -23.662102,0 -42.778943,18.772785 -42.778943,42.009022 V 416.33684 c 0,23.23625 19.116841,42.00902 42.778943,42.00902 h 42.778958 c 23.6621,0 42.77894,-18.77277 42.77894,-42.00902 0,-23.23624 -19.11684,-42.00902 -42.77894,-42.00902 H 84.242602 V 122.27368 h 42.778958 c 23.6621,0 42.77894,-18.77278 42.77894,-42.009019 0,-23.236237 -19.11684,-42.009022 -42.77894,-42.009022 z"
     fill="currentColor"
     id="path1"
     style="stroke-width:1.32475" />
  <!-- Right bracket ] -->
  <path
     d="m 426.47418,38.255639 h -42.77894 c -23.6621,0 -42.77894,18.772785 -42.77894,42.009022 0,23.236239 19.11684,42.009019 42.77894,42.009019 h 42.77894 v 252.05414 h -42.77894 c -23.6621,0 -42.77894,18.77278 -42.77894,42.00902 0,23.23625 19.11684,42.00902 42.77894,42.00902 h 42.77894 c 23.66212,0 42.77896,-18.77277 42.77896,-42.00902 V 80.264661 c 0,-23.236237 -19.11684,-42.009022 -42.77896,-42.009022 z"
     fill="currentColor"
     id="path2"
     style="stroke-width:1.32475" />
</svg>
